C:\Users\r0593348\3dpredictsim\Results\Batchsim_tmt_linear_v2\Pog_s1_tmt_aCst_d05_k500_ig24_act_GRF.mot
nRows=30
nColumns=19

name C:\Users\r0593348\3dpredictsim\Results\Batchsim_tmt_linear_v2\Pog_s1_tmt_aCst_d05_k500_ig24_act_GRF.mot
datacolumns 19
datarows 30
range 0.6235729218 0.9852452165
endheader
time 	ground_force_vx	ground_force_vy	ground_force_vz	ground_force_px	ground_force_py	ground_force_pz	1_ground_force_vx	1_ground_force_vy	1_ground_force_vz	1_ground_force_px	1_ground_force_py	1_ground_force_pz	ground_torque_x	ground_torque_y	ground_torque_z	1_ground_torque_x	1_ground_torque_y	1_ground_torque_z
        0.6235729218	       50.8160190416	      273.0572002455	       10.0575911274	        0.4179489615	        0.0000000000	        0.0458436559	      -88.2939220908	       72.1885292926	      -15.6925003028	        1.1561813163	        0.0000000000	       -0.0319116186	        0.0000000000	        0.0000000000	        0.0000000000	        0.0000000000	        0.0000000000	        0.0000000000	
        0.6360443803	       30.1438578881	      227.8960610843	       10.6282544673	        0.4298269333	        0.0000000000	        0.0448562833	     -174.0673684740	      165.8595502083	      -27.1484026552	        1.1383697197	        0.0000000000	       -0.0383566646	        0.0000000000	        0.0000000000	        0.0000000000	        0.0000000000	        0.0000000000	        0.0000000000	
        0.6485158387	       31.5074854312	      191.3012956729	       16.8682509430	        0.4303308538	        0.0000000000	        0.0452432758	     -192.5072744601	      437.9980094177	       -5.4593101940	        1.1048541553	        0.0000000000	       -0.0485641970	        0.0000000000	        0.0000000000	        0.0000000000	        0.0000000000	        0.0000000000	        0.0000000000	
        0.6609872971	       27.7684268071	      147.6266006327	       18.9788061712	        0.4307712258	        0.0000000000	        0.0454634779	     -203.5894590422	      619.6235499636	        4.4987734054	        1.0891885817	        0.0000000000	       -0.0523855327	        0.0000000000	        0.0000000000	        0.0000000000	        0.0000000000	        0.0000000000	        0.0000000000	
        0.6734587556	       17.5233524090	       95.1385342759	       17.1772237979	        0.4310287670	        0.0000000000	        0.0456600865	     -194.5050799044	      767.8881264392	        7.5020086741	        1.0800747137	        0.0000000000	       -0.0546361511	        0.0000000000	        0.0000000000	        0.0000000000	        0.0000000000	        0.0000000000	        0.0000000000	
        0.6859302140	       -1.0464687926	       37.0339955053	        8.0208150475	        0.4298502035	        0.0000000000	        0.0454537269	     -196.5523425862	      872.0289163348	       10.6958188471	        1.0749389196	        0.0000000000	       -0.0558871699	        0.0000000000	        0.0000000000	        0.0000000000	        0.0000000000	        0.0000000000	        0.0000000000	
        0.6984016724	       -3.8692405726	        3.7289643119	        0.1118877794	        0.0000000000	        0.0000000000	        0.0000000000	     -189.3980321078	      890.1172487768	       12.8360558892	        1.0718135358	        0.0000000000	       -0.0564958683	        0.0000000000	        0.0000000000	        0.0000000000	        0.0000000000	        0.0000000000	        0.0000000000	
        0.7108731309	       -9.6743882778	        7.3465811801	       -0.5994659000	        0.0000000000	        0.0000000000	        0.0000000000	     -173.0347347742	      865.0252224906	       10.8210429245	        1.0699909422	        0.0000000000	       -0.0568975248	        0.0000000000	        0.0000000000	        0.0000000000	        0.0000000000	        0.0000000000	        0.0000000000	
        0.7233445893	       -9.6039051913	        6.1954330934	       -0.6383390468	        0.0000000000	        0.0000000000	        0.0000000000	     -153.8106994878	      814.8871439411	       11.9223388011	        1.0698195235	        0.0000000000	       -0.0572519757	        0.0000000000	        0.0000000000	        0.0000000000	        0.0000000000	        0.0000000000	        0.0000000000	
        0.7358160478	       -8.3254741402	        4.7500604233	       -0.5911543275	        0.0000000000	        0.0000000000	        0.0000000000	     -134.9840535164	      762.9304282313	       12.3959464275	        1.0705958624	        0.0000000000	       -0.0576005290	        0.0000000000	        0.0000000000	        0.0000000000	        0.0000000000	        0.0000000000	        0.0000000000	
        0.7482875062	       -5.3714967682	        2.7738779287	       -0.3942463058	        0.0000000000	        0.0000000000	        0.0000000000	     -118.5143351347	      718.6730149147	       12.8688214771	        1.0717937434	        0.0000000000	       -0.0579739526	        0.0000000000	        0.0000000000	        0.0000000000	        0.0000000000	        0.0000000000	        0.0000000000	
        0.7607589646	       -3.9675831735	        1.9053921850	       -0.2875812597	        0.0000000000	        0.0000000000	        0.0000000000	     -103.0865981909	      684.0432976579	       13.7933075010	        1.0733290133	        0.0000000000	       -0.0583213047	        0.0000000000	        0.0000000000	        0.0000000000	        0.0000000000	        0.0000000000	        0.0000000000	
        0.7732304231	       -3.0427182844	        1.3964592764	       -0.1897084201	        0.0000000000	        0.0000000000	        0.0000000000	      -89.5373250141	      657.3763274458	       14.5822969502	        1.0752674375	        0.0000000000	       -0.0585910273	        0.0000000000	        0.0000000000	        0.0000000000	        0.0000000000	        0.0000000000	        0.0000000000	
        0.7857018815	       -2.2502896403	        0.9928847075	       -0.1202946921	        0.0000000000	        0.0000000000	        0.0000000000	      -79.5709849036	      636.4323892239	       15.5507365860	        1.0774431328	        0.0000000000	       -0.0587616560	        0.0000000000	        0.0000000000	        0.0000000000	        0.0000000000	        0.0000000000	        0.0000000000	
        0.7981733399	       -1.6761016243	        0.7171817755	       -0.0746387806	        0.0000000000	        0.0000000000	        0.0000000000	      -71.9047914949	      618.7816401931	       17.0012678480	        1.0796502952	        0.0000000000	       -0.0588449763	        0.0000000000	        0.0000000000	        0.0000000000	        0.0000000000	        0.0000000000	        0.0000000000	
        0.8106447984	       -1.3055387131	        0.5456077668	       -0.0467026548	        0.0000000000	        0.0000000000	        0.0000000000	      -65.4814471280	      602.7186934951	       18.3374747418	        1.0817274465	        0.0000000000	       -0.0588829048	        0.0000000000	        0.0000000000	        0.0000000000	        0.0000000000	        0.0000000000	        0.0000000000	
        0.8231162568	       -1.0996211961	        0.4513059057	       -0.0301928744	        0.0000000000	        0.0000000000	        0.0000000000	      -59.9061831002	      587.7740688082	       19.4576853329	        1.0835215977	        0.0000000000	       -0.0588984442	        0.0000000000	        0.0000000000	        0.0000000000	        0.0000000000	        0.0000000000	        0.0000000000	
        0.8355877152	       -1.0272490435	        0.4149912543	       -0.0206852464	        0.0000000000	        0.0000000000	        0.0000000000	      -54.7174367628	      573.8976997644	       20.5591853135	        1.0849530985	        0.0000000000	       -0.0589020603	        0.0000000000	        0.0000000000	        0.0000000000	        0.0000000000	        0.0000000000	        0.0000000000	
        0.8480591737	       -1.0523399993	        0.4190465404	       -0.0151013613	        0.0000000000	        0.0000000000	        0.0000000000	      -49.7735710607	      560.5814085614	       21.8035326616	        1.0860508810	        0.0000000000	       -0.0588899340	        0.0000000000	        0.0000000000	        0.0000000000	        0.0000000000	        0.0000000000	        0.0000000000	
        0.8605306321	       -1.1467079708	        0.4506045815	       -0.0119802365	        0.0000000000	        0.0000000000	        0.0000000000	      -44.9285276973	      547.4409508068	       23.2165501056	        1.0868682808	        0.0000000000	       -0.0588595898	        0.0000000000	        0.0000000000	        0.0000000000	        0.0000000000	        0.0000000000	        0.0000000000	
        0.8730020906	       -1.2841690928	        0.4985786679	       -0.0109366665	        0.0000000000	        0.0000000000	        0.0000000000	      -40.0898413957	      534.6258582754	       24.7691328217	        1.0874184372	        0.0000000000	       -0.0588101732	        0.0000000000	        0.0000000000	        0.0000000000	        0.0000000000	        0.0000000000	        0.0000000000	
        0.8854735490	       -1.4322239992	        0.5503186182	       -0.0116566772	        0.0000000000	        0.0000000000	        0.0000000000	      -35.1239507185	      522.4757524587	       26.0078089456	        1.0876872709	        0.0000000000	       -0.0587517459	        0.0000000000	        0.0000000000	        0.0000000000	        0.0000000000	        0.0000000000	        0.0000000000	
        0.8979450074	       -1.5585100782	        0.5938082160	       -0.0135086793	        0.0000000000	        0.0000000000	        0.0000000000	      -29.9686181136	      511.3686866140	       26.9565346440	        1.0876629572	        0.0000000000	       -0.0586758887	        0.0000000000	        0.0000000000	        0.0000000000	        0.0000000000	        0.0000000000	        0.0000000000	
        0.9104164659	       -1.6576009641	        0.6272567501	       -0.0156474133	        0.0000000000	        0.0000000000	        0.0000000000	      -24.4400082893	      501.6289462079	       27.1749390663	        1.0873465006	        0.0000000000	       -0.0585800697	        0.0000000000	        0.0000000000	        0.0000000000	        0.0000000000	        0.0000000000	        0.0000000000	
        0.9228879243	       -1.7633895811	        0.6633085966	       -0.0176679375	        0.0000000000	        0.0000000000	        0.0000000000	      -18.4344087409	      494.4056030985	       26.9664901399	        1.0867693897	        0.0000000000	       -0.0584385892	        0.0000000000	        0.0000000000	        0.0000000000	        0.0000000000	        0.0000000000	        0.0000000000	
        0.9353593827	       -1.9064718049	        0.7135224992	       -0.0196898973	        0.0000000000	        0.0000000000	        0.0000000000	      -11.9795928225	      490.7130756675	       26.5849325423	        1.0859806612	        0.0000000000	       -0.0582286683	        0.0000000000	        0.0000000000	        0.0000000000	        0.0000000000	        0.0000000000	        0.0000000000	
        0.9478308412	       -2.0857619036	        0.7779950822	       -0.0209682359	        0.0000000000	        0.0000000000	        0.0000000000	       -5.2569080413	      490.3197224795	       25.8687774842	        1.0850390446	        0.0000000000	       -0.0579412714	        0.0000000000	        0.0000000000	        0.0000000000	        0.0000000000	        0.0000000000	        0.0000000000	
        0.9603022996	       -2.2778553117	        0.8487356494	       -0.0201387630	        0.0000000000	        0.0000000000	        0.0000000000	        1.9404579546	      495.0848526933	       25.1004882026	        1.0840540584	        0.0000000000	       -0.0575547807	        0.0000000000	        0.0000000000	        0.0000000000	        0.0000000000	        0.0000000000	        0.0000000000	
        0.9727737580	       -2.4443434020	        0.9119141777	       -0.0166840787	        0.0000000000	        0.0000000000	        0.0000000000	        9.7643479810	      504.9115977975	       24.4328849687	        1.0830912874	        0.0000000000	       -0.0570574933	        0.0000000000	        0.0000000000	        0.0000000000	        0.0000000000	        0.0000000000	        0.0000000000	
        0.9852452165	       -2.5322485557	        0.9481173044	       -0.0104884640	        0.0000000000	        0.0000000000	        0.0000000000	       18.2640747895	      519.6697879411	       23.8366352153	        1.0821981854	        0.0000000000	       -0.0564459507	        0.0000000000	        0.0000000000	        0.0000000000	        0.0000000000	        0.0000000000	        0.0000000000	
